<svg xmlns="http://www.w3.org/2000/svg" xmlns:xlink="http://www.w3.org/1999/xlink" viewBox="0 0 2989.5 2303"><defs><style>.cls-1{fill:none;}.cls-2{fill:#f4e8da;}.cls-3{fill:#944f37;}.cls-4{clip-path:url(#clip-path);}.cls-5{fill:#c3af96;}.cls-6{fill:#7c582a;}</style><clipPath id="clip-path" transform="translate(0 189.6)"><rect class="cls-1" x="438" y="-437.8" width="2113.4" height="2989.5" transform="translate(437.8 2551.7) rotate(-90)"/></clipPath></defs><g id="Layer_2" data-name="Layer 2"><g id="Слой_1" data-name="Слой 1"><rect class="cls-2" x="438" y="-438" width="2113.4" height="2989.5" transform="translate(438 2741) rotate(-90)"/><path class="cls-3" d="M1319.2,1415c0-258.6-209.6-468.2-468.2-468.2S382.9,1156.4,382.9,1415,592.5,1883.1,851,1883.1,1319.2,1673.5,1319.2,1415Z" transform="translate(0 189.6)"/><g class="cls-4"><path class="cls-5" d="M2575.4,424.5C2555.8,82.2,2272.2-189.4,1925-189.6V1114.3c347.2-.2,630.8-271.8,650.4-614.1.7-12.5,1.2-25.1,1.2-37.9S2576.1,437,2575.4,424.5Z" transform="translate(0 189.6)"/></g><path class="cls-6" d="M852.7,48.7c.1,203.6-89,409.4-239,546.6C451.8,743.4,216.7,813.9,0,779.1v-8.2c214.3,34.4,448.1-35,608.3-181.6S858.3,217.3,843,.8l8-.6C852.2,16.4,852.7,32.6,852.7,48.7Z" transform="translate(0 189.6)"/><path class="cls-6" d="M2989.5,1334.7v8.1c-214.3-34.4-445,35.6-605.1,182.1s-250.1,372-234.7,588.5h-8.1c-15.6-218.8,75.4-446.3,237.3-594.5S2772.8,1299.9,2989.5,1334.7Z" transform="translate(0 189.6)"/></g></g></svg>