<svg xmlns="http://www.w3.org/2000/svg" viewBox="0 0 2238 447"><defs><style>.cls-1{fill:#352623;}</style></defs><g id="Layer_2" data-name="Layer 2"><g id="Слой_1" data-name="Слой 1"><path class="cls-1" d="M176.1,309.7c-6-17.9-15.4-44.8-28.4-80.6s-22.4-62.6-28.3-80.6h56.7L277.6,423.1a31.8,31.8,0,0,0,8.5,13.2c4,3.9,8.2,5.9,12.3,5.9v3H208.9v-3q3.6.3,9-3c3.3-2.4,4.3-5.3,3-8.9q-14.4-38.2-18-49l-2.9-8.9a147.5,147.5,0,0,0-30.5-27.3c-11.5-7.9-25.7-14.9-42.7-21.2s-35.6-10-56.1-11.2-44-.2-70.7,3c30.4-9,55.9-14.7,76.3-17.3s37.5-3,51.4-1.2S157.8,303.1,176.1,309.7ZM92.5,442.2v3H6v-3a31.7,31.7,0,0,0,14.1-3.6A53.9,53.9,0,0,0,31,432.2c2.4-1.9,6-4.9,10.8-9.1,11.1-9.9,19.1-20.9,23.9-32.8h2.9a51.6,51.6,0,0,0-4,21.5c.1,8.1,1.5,14.3,4,18.5C73.6,438.2,81.6,442.2,92.5,442.2Z"/><path class="cls-1" d="M360.2,428.5v-203l58.2-74.6H357.8c9.4,4.6,14.1,13.2,14.1,25.7a26,26,0,0,1-25.7,25.7c-8.2,0-14.9-2.6-20.1-7.6s-8-11.1-8-18.1,2.7-14.9,8-20.1,11.9-8,20.1-8H479q36.8,0,62.7,26t25.9,62.7a91.2,91.2,0,0,1-44.1,78.5A84.8,84.8,0,0,1,479,328.2H462.6a73.3,73.3,0,0,1,30.6,6.7,57.5,57.5,0,0,1,23.1,19l51.3,72.2a19.1,19.1,0,0,0,9.3,9.3,42.1,42.1,0,0,0,23.3,6.8V447H479v-4.8c5.8,0,10.3-1.9,13.4-5.7a13.6,13.6,0,0,0,3-12.8c-3-7.5-5.6-14.1-8-19.5s-5.7-12.4-9.7-20.6a157.5,157.5,0,0,0-12.3-21.1c-4.1-5.7-8.5-11.5-13.4-17.1a51.7,51.7,0,0,0-16-12.9,39.7,39.7,0,0,0-17.6-4.3V429.4a15.6,15.6,0,0,0,3.6,10.1,15.4,15.4,0,0,0,1.9,1.7,5.4,5.4,0,0,0,2.7.9l2.4.3a14.1,14.1,0,0,0,3,0l2.8-.2V447h-91v-4.8l2.1.2h1.9l1.5-.3a7.5,7.5,0,0,0,1.8-.7l2-1.4a10.6,10.6,0,0,0,2.3-2.4l.6-.6C358.8,434.2,360.2,431.3,360.2,428.5Zm58.2-277.6V323.4a93.6,93.6,0,0,0,45.1-11.2,86.9,86.9,0,0,0,33.4-31.1,80.9,80.9,0,0,0,12.5-43.9q0-30.7-22.3-54.9a104.2,104.2,0,0,0-54.7-31.4h-14Z"/><path class="cls-1" d="M628.2,148.5H881.3l-6.3,60-.8,10.2v4.2h-3.3c2.2-19.1-3.2-35.8-16-50s-28.8-21.4-47.9-21.4H785.2v277a15.7,15.7,0,0,0,4.2,10.9,13.1,13.1,0,0,0,10.1,4.6v3H709.7v-3a16.1,16.1,0,0,0,15.5-15.5v-277H702.5c-19.1,0-35,7.1-47.9,21.4s-18.1,30.9-15.9,50h-3.3Z"/><path class="cls-1" d="M1112,204.7l40.9,111.6a14.8,14.8,0,0,0,8.5,9.1,15.2,15.2,0,0,0,12.2,0,14.8,14.8,0,0,0,8.5-9.1l5.1-14.1,2.1,2.7L1169,360.7l-28.9,86h-3l.3-.3L1055,204.7,1040.7,165a18.7,18.7,0,0,0-7-9.1,19.1,19.1,0,0,0-11.2-3.5v-2.7h85.6v2.7a9.8,9.8,0,0,0-8.5,4.5,10,10,0,0,0-1.3,9.6Zm96.7,0-5.7-15.9h-.3l-8.3-23.8a19.9,19.9,0,0,0-7.3-9.1,18.6,18.6,0,0,0-10.9-3.5v-2.7h85.6v2.7a10.1,10.1,0,0,0-8.6,4.5,9.3,9.3,0,0,0-1.2,9.6l13.7,38.2,40.6,111.6a14.8,14.8,0,0,0,8.5,9.1,15.7,15.7,0,0,0,12.4,0,14.4,14.4,0,0,0,8.6-9.1l3.3-9,1.8,2.1-18.5,51.3-28.6,86h-3l.3-.3-74-218.5Zm145.9-52.3v-2.7h85.7v2.7a58.9,58.9,0,0,0-34.5,10.9,60.5,60.5,0,0,0-21.9,28.5l-4.5,12.9h-3l5.1-14.1c3.4-9.1,2.2-17.8-3.6-25.9S1364.4,152.4,1354.6,152.4Z"/><path class="cls-1" d="M1614,309.7c-6-17.9-15.4-44.8-28.4-80.6s-22.3-62.6-28.3-80.6H1614l101.5,274.6a32.9,32.9,0,0,0,8.5,13.2c4,3.9,8.2,5.9,12.4,5.9v3h-89.6v-3q3.6.3,9-3c3.4-2.4,4.4-5.3,3-8.9q-14.4-38.2-17.9-49l-3-8.9a147.5,147.5,0,0,0-30.5-27.3c-11.5-7.9-25.7-14.9-42.6-21.2s-35.7-10-56.2-11.2-44-.2-70.7,3c30.5-9,55.9-14.7,76.3-17.3s37.5-3,51.4-1.2S1595.7,303.1,1614,309.7Zm-83.6,132.5v3h-86.5v-3a32.1,32.1,0,0,0,14.2-3.6,55.5,55.5,0,0,0,10.8-6.4c2.4-1.9,6-4.9,10.8-9.1,11.1-9.9,19.1-20.9,23.9-32.8h3a50,50,0,0,0-4.1,21.5c.1,8.1,1.5,14.3,4.1,18.5C1511.5,438.2,1519.5,442.2,1530.4,442.2Z"/><path class="cls-1" d="M1960.8,371.5,1970,447H1740.8v-3.3c4.8,0,8.6-1.4,11.5-4.2s4.4-6.5,4.4-11.3V167.3c0-4.7-1.5-8.5-4.4-11.3s-6.7-4.2-11.5-4.2v-3.3h91.1v3.3c-4.6,0-8.4,1.4-11.2,4.2s-4.4,6.6-4.4,11.3V443.7h78.5q29,0,48.2-21c12.9-14.1,17.7-31.1,14.5-51.2Z"/><path class="cls-1" d="M2129.7,265.2l103.9,177.6,4.4,4.2h-91v-4.2c4.4,0,7.5-1.8,9.3-5.5s1.6-7.6-.6-11.8L2090.9,313c-4,2-7.2,5.6-9.5,10.7a36.3,36.3,0,0,0-3.6,15.3v90.7c0,2.4,1.9,5.2,5.6,8.3s7.7,4.8,11.7,4.8V447h-90.7v-4.2a11.3,11.3,0,0,0,9.4-4.5c2.2-2.9,3.4-5.8,3.4-8.6V165.9c0-8.8-4.3-13.2-12.8-13.2v-4.2h90.7v4.2a21.5,21.5,0,0,0-12.1,3.5,10.8,10.8,0,0,0-5.2,9.7V317.2l51.9-56.1ZM2147,152.7v-4.2h86.6l-73.5,82.1v-4.2l4.2-4.4c5.8-7.2,9.2-16.2,10.2-27.2s-1-20.7-5.8-29.2S2156.6,152.7,2147,152.7Z"/><path class="cls-1" d="M69.3,33.1C69.3,13.6,83,0,101.8,0s32.6,13.6,32.6,33.1-14,33.1-32.6,33.1S69.3,52.3,69.3,33.1Zm54.2-.1c0-14.6-5.1-30-21.7-30S80.2,18.4,80.2,33s5,29.9,21.6,29.9S123.5,47.7,123.5,33Z"/><path class="cls-1" d="M195.7,54.1c0,7.2,3.3,7.3,9.3,7.6v2.9H177.1V61.7c5.9-.3,9.1-.5,9.1-7.6V12c0-7.1-3.3-7.3-9.1-7.6V1.5h21.7c12,0,26.5.3,26.5,16.8a15.8,15.8,0,0,1-7.8,14c-3.9,2.1-8.6,2.3-13,2.3h-8.8Zm7-22.4c8.1,0,12.4-5.5,12.4-13.8,0-10.1-4.6-13.7-13.8-13.7l-5.6.2V31.7Z"/><path class="cls-1" d="M313.7,16.9h-3.1c-1.7-7-4.7-12.2-12.1-12.2H285.4V29.5H291c5.8,0,8.1-3,8.4-8.8h3.1V42.1h-3.1c-.8-6.1-1.5-9.3-8.4-9.3h-5.6V53.1c0,6.6,3.7,8.3,9.5,8.3,7.4,0,13.5-.3,17.6-7.8,1.3-2.5,2.8-5.5,2.9-8.5h3l-1.3,19.5H266.8V61.7c6-.3,9.2-.5,9.2-7.6V12c0-7.1-3.3-7.3-9.2-7.6V1.5h45.1Z"/><path class="cls-1" d="M410.4,64.6H360.2V61.7c6-.3,9.2-.5,9.2-7.6V12c0-7.1-3.3-7.3-9.2-7.6V1.5h27.7V4.4c-7.1.3-9.1.3-9.1,7.6V54.4c.7,5.7,3.7,7,9.5,7,7.5,0,13.5-.3,17.6-7.8,1.3-2.5,2.7-5.5,2.9-8.5h2.9Z"/><path class="cls-1" d="M452.9,33.1C452.9,13.6,466.6,0,485.4,0S518,13.6,518,33.1s-14,33.1-32.6,33.1S452.9,52.3,452.9,33.1Zm54.2-.1c0-14.6-5.1-30-21.7-30s-21.6,15.4-21.6,30,5,29.9,21.6,29.9S507.1,47.7,507.1,33Z"/><path class="cls-1" d="M621.3,1.6V4.4c-6.8.6-9.2.8-9.2,8.3V43.1c0,13.5-4,23.1-18.8,23.1-17,0-24.4-3.5-24.4-22.7V12.1c0-7.2-3.1-7.4-9.1-7.7V1.6h27.7V4.4c-4.3.2-9.1-.6-9.1,7.7V42.4c0,11.9,1.5,20.5,14.9,20.5S608,52.8,608,43.1V12.7c0-6.9-3.1-7.8-9-8.3V1.6Z"/><path class="cls-1" d="M700.3,18h-3.2C696.9,10.6,689,2.7,682,2.7c-4.1,0-7.7,2.5-9.7,9,0,15.4,31.7,12.9,31.7,34.8,0,11-7.3,19.7-18.5,19.7a24.6,24.6,0,0,1-16.7-6.9,33.9,33.9,0,0,0-2,5.3h-3.1V44.7h3.1c1.1,8.7,7.9,17.5,16.9,17.5,6.6,0,13.2-3.6,13.2-11.5,0-17.2-32.1-14.3-32.1-34.6,0-9.9,8-16.1,17.3-16.1,5,0,9.9,1.3,13.7,4.6A21.2,21.2,0,0,0,697.6.9h2.7Z"/><path class="cls-1" d="M799.8,55.4c1.7,4.2,4,6.2,8.4,6.3v2.9H782.8V61.8c4.5,0,6.9-2.1,6.9-4.7a5.5,5.5,0,0,0-.3-1.7l-5-12.2H760.5l-4.6,12.2a6.3,6.3,0,0,0-.7,2.7c0,2.4,2.4,3.6,7.5,3.6v2.9H741.5V61.7c5.1-.1,7.9-1.3,9.8-6.3L773.2.5h3.6Zm-25-36.2c-.8-2.5-1.7-3.3-2.4-5.9L762,39.3h20.8Z"/><path class="cls-1" d="M886.2,18h-3.1C882.8,10.6,875,2.7,868,2.7c-4.1,0-7.8,2.5-9.8,9,0,15.4,31.8,12.9,31.8,34.8,0,11-7.4,19.7-18.5,19.7-6.4,0-12-2.6-16.8-6.9a47.6,47.6,0,0,0-1.9,5.3h-3.2V44.7h3.2c1.1,8.7,7.9,17.5,16.9,17.5,6.6,0,13.1-3.6,13.1-11.5,0-17.2-32-14.3-32-34.6,0-9.9,8-16.1,17.3-16.1,5,0,9.9,1.3,13.7,4.6A21.2,21.2,0,0,0,883.6.9h2.6Z"/><path class="cls-1" d="M998.7,1.5h24.6c18.4,0,37,4.5,37,32.1,0,18.7-12.4,31-30.5,31H998.7V61.7c6-.3,9.2-.5,9.2-7.6V12c0-7.1-3.3-7.3-9.2-7.6Zm18.6,49.4c0,9.4,2.3,10.4,10.6,10.4,15.8,0,21.2-13.2,21.2-27.9,0-18-7.6-28.9-25.5-28.9l-6.3.3Z"/><path class="cls-1" d="M1104.9,33.1c0-19.5,13.7-33.1,32.5-33.1s32.5,13.6,32.5,33.1-14,33.1-32.5,33.1S1104.9,52.3,1104.9,33.1Zm54.2-.1c0-14.6-5.1-30-21.7-30s-21.7,15.4-21.7,30,5,29.9,21.7,29.9S1159.1,47.7,1159.1,33Z"/><path class="cls-1" d="M1268,49.5,1278.7,12a21.8,21.8,0,0,0,.8-4c0-2.7-2.1-3.6-8.1-3.6V1.5h21.1V4.4c-4.7.1-8,1.1-9.4,6.2l-15.5,55h-3.5l-15.8-47.3-14.1,47.3h-3.9l-16.2-55a8,8,0,0,0-8.2-6.2V1.5h24.4V4.4c-4.8,0-6.5,1.7-6.5,3.8a8.8,8.8,0,0,0,.2,1.6l10.7,39.7,14.6-48h2.9Z"/><path class="cls-1" d="M1383.3,49.6V13.9c0-9.7-3.7-7.8-8.5-9.5V1.5h21.3V4.4c-6.6.1-8.8,3-8.8,9.5V65.2h-4.2L1345.2,12V48.9c0,7.8.5,12.1,9.1,12.8v2.9h-22.1V61.7c6.7-.3,9.1-3.1,9.1-10.2V12c0-7.1-3.3-7.3-9.1-7.6V1.5h18.1Z"/><path class="cls-1" d="M1451.8,64.6V61.7c6.1-.3,9-.6,9-7.6V4.6H1451c-7.8,0-10,5.4-12.1,12.2H1436l1.6-15.3h56l1.7,15.3h-2.9c-2.2-6.6-4.4-12.2-12.2-12.2h-10V54.1c0,7.2,3.3,7.3,9.2,7.6v2.9Z"/><path class="cls-1" d="M1534.3,33.1c0-19.5,13.7-33.1,32.6-33.1s32.5,13.6,32.5,33.1-14,33.1-32.5,33.1S1534.3,52.3,1534.3,33.1Zm54.2-.1c0-14.6-5.1-30-21.6-30s-21.7,15.4-21.7,30,5,29.9,21.7,29.9S1588.5,47.7,1588.5,33Z"/><path class="cls-1" d="M1697.5,49.5,1708.2,12a21.8,21.8,0,0,0,.8-4c0-2.7-2.1-3.6-8.1-3.6V1.5H1722V4.4c-4.7.1-8,1.1-9.5,6.2l-15.5,55h-3.5l-15.8-47.3-14.1,47.3h-3.8l-16.2-55a8,8,0,0,0-8.2-6.2V1.5h24.4V4.4c-4.9,0-6.6,1.7-6.6,3.8a4.5,4.5,0,0,0,.3,1.6l10.7,39.7,14.6-48h2.9Z"/><path class="cls-1" d="M1812.8,49.6V13.9c-.1-9.7-3.8-7.8-8.5-9.5V1.5h21.3V4.4c-6.6.1-8.8,3-8.8,9.5V65.2h-4.3L1774.7,12V48.9c0,7.8.5,12.1,9.1,12.8v2.9h-22.2V61.7c6.8-.3,9.1-3.1,9.1-10.2V12c0-7.1-3.2-7.3-9.1-7.6V1.5h18.2Z"/></g></g></svg>